ffmpeg started on 2025-05-28 at 10:52:19
Report written to "D:\Convert\FFMetrics\reports\psnr_report-6.txt"
Log level: 32
Command line:
ffmpeg -hide_banner -nostdin -i "G:\\\xc0\xed\xe8\xec\xe5\\\xce\xed\xe3\xee\xe8\xed\xe3\xe8\\!_36_\xce\xf1\xe5\xed\xfc_2024\\JamClub\\MF \xcf\xf0\xe8\xe7\xf0\xe0\xea\\\xd2\xc2-2\\[JamClub] MF Ghost 2 - 03_HEVC.mkv" -i "G:\\\xc0\xed\xe8\xec\xe5\\\xce\xed\xe3\xee\xe8\xed\xe3\xe8\\!_36_\xce\xf1\xe5\xed\xfc_2024\\JamClub\\MF \xcf\xf0\xe8\xe7\xf0\xe0\xea\\\xd2\xc2-2\\[JamClub] MF Ghost 2 - 03.mp4" -lavfi "[0:v]settb=AVTB,setpts=PTS-STARTPTS,format=pix_fmts=yuv420p10,fps=24000/1001,scale=1920:1080:flags=bicubic[main];[1:v]settb=AVTB,setpts=PTS-STARTPTS,format=pix_fmts=yuv420p,fps=24000/1001,scale=1920:1080:flags=bicubic[ref];[main][ref]psnr=eof_action=endall:stats_file='D\\:/Convert/FFMetrics/logs/psnr_logfile-6.txt'" -f null -
Input #0, matroska,webm, from 'G:\Аниме\Онгоинги\!_36_Осень_2024\JamClub\MF Призрак\ТВ-2\[JamClub] MF Ghost 2 - 03_HEVC.mkv':
  Metadata:
    COMPATIBLE_BRANDS: isomiso2avc1mp41
    MAJOR_BRAND     : isom
    MINOR_VERSION   : 512
    ENCODER         : Lavf61.7.100
  Duration: 00:24:02.37, start: -0.001000, bitrate: 2516 kb/s
  Stream #0:0: Video: hevc (Main 10), yuv420p10le(tv, bt709, progressive), 1920x1080 [SAR 1:1 DAR 16:9], 23.98 fps, 23.98 tbr, 1k tbn (default)
      Metadata:
        HANDLER_NAME    : VideoHandler
        VENDOR_ID       : [0][0][0][0]
        ENCODER         : Lavc61.19.100 libx265
        BPS             : 2316358
        DURATION        : 00:24:02.232708333
        NUMBER_OF_FRAMES: 34579
        NUMBER_OF_BYTES : 417590828
        _STATISTICS_WRITING_APP: mkvpropedit v66.0.0 ('Josie') 64-bit
        _STATISTICS_WRITING_DATE_UTC: 2025-05-27 11:49:45
        _STATISTICS_TAGS: BPS DURATION NUMBER_OF_FRAMES NUMBER_OF_BYTES
  Stream #0:1(eng): Audio: aac (LC), 48000 Hz, stereo, fltp (default)
      Metadata:
        HANDLER_NAME    : SoundHandler
        VENDOR_ID       : [0][0][0][0]
        ENCODER         : Lavc61.19.100 aac
        BPS             : 196085
        DURATION        : 00:24:02.328000000
        NUMBER_OF_FRAMES: 67610
        NUMBER_OF_BYTES : 35352365
        _STATISTICS_WRITING_APP: mkvpropedit v66.0.0 ('Josie') 64-bit
        _STATISTICS_WRITING_DATE_UTC: 2025-05-27 11:49:45
        _STATISTICS_TAGS: BPS DURATION NUMBER_OF_FRAMES NUMBER_OF_BYTES
Input #1, mov,mp4,m4a,3gp,3g2,mj2, from 'G:\Аниме\Онгоинги\!_36_Осень_2024\JamClub\MF Призрак\ТВ-2\[JamClub] MF Ghost 2 - 03.mp4':
  Metadata:
    major_brand     : isom
    minor_version   : 512
    compatible_brands: isomiso2avc1mp41
    encoder         : Lavf60.16.100
  Duration: 00:24:02.35, start: 0.000000, bitrate: 5836 kb/s
  Stream #1:0[0x1](und): Video: h264 (High) (avc1 / 0x31637661), yuv420p(progressive), 1920x1080 [SAR 1:1 DAR 16:9], 5639 kb/s, 23.98 fps, 23.98 tbr, 90k tbn (default)
      Metadata:
        handler_name    : VideoHandler
        vendor_id       : [0][0][0][0]
  Stream #1:1[0x2](eng): Audio: aac (LC) (mp4a / 0x6134706D), 48000 Hz, stereo, fltp, 191 kb/s (default)
      Metadata:
        handler_name    : SoundHandler
        vendor_id       : [0][0][0][0]
Stream mapping:
  Stream #0:0 (hevc) -> settb:default
  Stream #1:0 (h264) -> settb:default
  psnr:default -> Stream #0:0 (wrapped_avframe)
  Stream #0:1 -> #0:1 (aac (native) -> pcm_s16le (native))
Output #0, null, to 'pipe:':
  Metadata:
    COMPATIBLE_BRANDS: isomiso2avc1mp41
    MAJOR_BRAND     : isom
    MINOR_VERSION   : 512
    encoder         : Lavf61.7.100
  Stream #0:0: Video: wrapped_avframe, yuv420p10le(tv, bt709, progressive), 1920x1080 [SAR 1:1 DAR 16:9], q=2-31, 200 kb/s, 23.98 fps, 23.98 tbn
      Metadata:
        encoder         : Lavc61.19.100 wrapped_avframe
  Stream #0:1(eng): Audio: pcm_s16le, 48000 Hz, stereo, s16, 1536 kb/s (default)
      Metadata:
        HANDLER_NAME    : SoundHandler
        VENDOR_ID       : [0][0][0][0]
        _STATISTICS_TAGS: BPS DURATION NUMBER_OF_FRAMES NUMBER_OF_BYTES
        BPS             : 196085
        DURATION        : 00:24:02.328000000
        NUMBER_OF_FRAMES: 67610
        NUMBER_OF_BYTES : 35352365
        _STATISTICS_WRITING_APP: mkvpropedit v66.0.0 ('Josie') 64-bit
        _STATISTICS_WRITING_DATE_UTC: 2025-05-27 11:49:45
        encoder         : Lavc61.19.100 pcm_s16le
frame=  112 fps=0.0 q=-0.0 size=N/A time=00:00:04.67 bitrate=N/A speed=8.99x    frame=  267 fps=259 q=-0.0 size=N/A time=00:00:11.13 bitrate=N/A speed=10.8x    frame=  464 fps=298 q=-0.0 size=N/A time=00:00:19.35 bitrate=N/A speed=12.4x    frame=  683 fps=329 q=-0.0 size=N/A time=00:00:28.48 bitrate=N/A speed=13.7x    frame=  912 fps=350 q=-0.0 size=N/A time=00:00:38.03 bitrate=N/A speed=14.6x    frame= 1092 fps=349 q=-0.0 size=N/A time=00:00:45.54 bitrate=N/A speed=14.6x    frame= 1305 fps=359 q=-0.0 size=N/A time=00:00:54.42 bitrate=N/A speed=  15x    frame= 1524 fps=367 q=-0.0 size=N/A time=00:01:03.56 bitrate=N/A speed=15.3x    frame= 1745 fps=373 q=-0.0 size=N/A time=00:01:12.78 bitrate=N/A speed=15.6x    frame= 1885 fps=363 q=-0.0 size=N/A time=00:01:18.62 bitrate=N/A speed=15.1x    frame= 2037 fps=357 q=-0.0 size=N/A time=00:01:24.95 bitrate=N/A speed=14.9x    frame= 2211 fps=356 q=-0.0 size=N/A time=00:01:32.21 bitrate=N/A speed=14.8x    frame= 2391 fps=355 q=-0.0 size=N/A time=00:01:39.72 bitrate=N/A speed=14.8x    frame= 2564 fps=353 q=-0.0 size=N/A time=00:01:46.94 bitrate=N/A speed=14.7x    frame= 2738 fps=353 q=-0.0 size=N/A time=00:01:54.19 bitrate=N/A speed=14.7x    frame= 2942 fps=355 q=-0.0 size=N/A time=00:02:02.70 bitrate=N/A speed=14.8x    frame= 3115 fps=354 q=-0.0 size=N/A time=00:02:09.92 bitrate=N/A speed=14.8x    frame= 3261 fps=350 q=-0.0 size=N/A time=00:02:16.01 bitrate=N/A speed=14.6x    frame= 3409 fps=347 q=-0.0 size=N/A time=00:02:22.18 bitrate=N/A speed=14.5x    frame= 3574 fps=345 q=-0.0 size=N/A time=00:02:29.06 bitrate=N/A speed=14.4x    frame= 3713 fps=342 q=-0.0 size=N/A time=00:02:34.86 bitrate=N/A speed=14.3x    frame= 3851 fps=338 q=-0.0 size=N/A time=00:02:40.61 bitrate=N/A speed=14.1x    frame= 4022 fps=338 q=-0.0 size=N/A time=00:02:47.75 bitrate=N/A speed=14.1x    frame= 4249 fps=343 q=-0.0 size=N/A time=00:02:57.21 bitrate=N/A speed=14.3x    frame= 4503 fps=348 q=-0.0 size=N/A time=00:03:07.81 bitrate=N/A speed=14.5x    frame= 4755 fps=354 q=-0.0 size=N/A time=00:03:18.32 bitrate=N/A speed=14.8x    frame= 4974 fps=356 q=-0.0 size=N/A time=00:03:27.45 bitrate=N/A speed=14.9x    frame= 5184 fps=358 q=-0.0 size=N/A time=00:03:36.21 bitrate=N/A speed=14.9x    frame= 5425 fps=362 q=-0.0 size=N/A time=00:03:46.26 bitrate=N/A speed=15.1x    frame= 5663 fps=365 q=-0.0 size=N/A time=00:03:56.19 bitrate=N/A speed=15.2x    frame= 5929 fps=370 q=-0.0 size=N/A time=00:04:07.28 bitrate=N/A speed=15.4x    frame= 6147 fps=372 q=-0.0 size=N/A time=00:04:16.38 bitrate=N/A speed=15.5x    frame= 6359 fps=373 q=-0.0 size=N/A time=00:04:25.22 bitrate=N/A speed=15.6x    frame= 6540 fps=372 q=-0.0 size=N/A time=00:04:32.77 bitrate=N/A speed=15.5x    frame= 6783 fps=375 q=-0.0 size=N/A time=00:04:42.90 bitrate=N/A speed=15.6x    frame= 6960 fps=374 q=-0.0 size=N/A time=00:04:50.29 bitrate=N/A speed=15.6x    frame= 7156 fps=375 q=-0.0 size=N/A time=00:04:58.46 bitrate=N/A speed=15.6x    frame= 7412 fps=377 q=-0.0 size=N/A time=00:05:09.14 bitrate=N/A speed=15.7x    frame= 7658 fps=380 q=-0.0 size=N/A time=00:05:19.40 bitrate=N/A speed=15.8x    frame= 7858 fps=380 q=-0.0 size=N/A time=00:05:27.74 bitrate=N/A speed=15.9x    frame= 8082 fps=382 q=-0.0 size=N/A time=00:05:37.08 bitrate=N/A speed=15.9x    frame= 8297 fps=382 q=-0.0 size=N/A time=00:05:46.05 bitrate=N/A speed=15.9x    frame= 8542 fps=385 q=-0.0 size=N/A time=00:05:56.27 bitrate=N/A speed=  16x    frame= 8790 fps=387 q=-0.0 size=N/A time=00:06:06.61 bitrate=N/A speed=16.1x    frame= 8982 fps=386 q=-0.0 size=N/A time=00:06:14.62 bitrate=N/A speed=16.1x    frame= 9185 fps=386 q=-0.0 size=N/A time=00:06:23.09 bitrate=N/A speed=16.1x    frame= 9373 fps=386 q=-0.0 size=N/A time=00:06:30.93 bitrate=N/A speed=16.1x    frame= 9554 fps=385 q=-0.0 size=N/A time=00:06:38.48 bitrate=N/A speed=16.1x    frame= 9751 fps=385 q=-0.0 size=N/A time=00:06:46.69 bitrate=N/A speed=16.1x    frame= 9968 fps=386 q=-0.0 size=N/A time=00:06:55.74 bitrate=N/A speed=16.1x    frame=10176 fps=386 q=-0.0 size=N/A time=00:07:04.42 bitrate=N/A speed=16.1x    frame=10373 fps=386 q=-0.0 size=N/A time=00:07:12.64 bitrate=N/A speed=16.1x    frame=10543 fps=385 q=-0.0 size=N/A time=00:07:19.73 bitrate=N/A speed=16.1x    frame=10751 fps=385 q=-0.0 size=N/A time=00:07:28.40 bitrate=N/A speed=16.1x    frame=11000 fps=387 q=-0.0 size=N/A time=00:07:38.79 bitrate=N/A speed=16.2x    frame=11225 fps=388 q=-0.0 size=N/A time=00:07:48.17 bitrate=N/A speed=16.2x    frame=11455 fps=389 q=-0.0 size=N/A time=00:07:57.76 bitrate=N/A speed=16.2x    frame=11667 fps=390 q=-0.0 size=N/A time=00:08:06.61 bitrate=N/A speed=16.2x    frame=11905 fps=391 q=-0.0 size=N/A time=00:08:16.53 bitrate=N/A speed=16.3x    frame=12158 fps=392 q=-0.0 size=N/A time=00:08:27.08 bitrate=N/A speed=16.4x    frame=12414 fps=394 q=-0.0 size=N/A time=00:08:37.76 bitrate=N/A speed=16.4x    frame=12681 fps=396 q=-0.0 size=N/A time=00:08:48.90 bitrate=N/A speed=16.5x    frame=12928 fps=397 q=-0.0 size=N/A time=00:08:59.20 bitrate=N/A speed=16.6x    frame=13178 fps=399 q=-0.0 size=N/A time=00:09:09.63 bitrate=N/A speed=16.6x    frame=13385 fps=399 q=-0.0 size=N/A time=00:09:18.26 bitrate=N/A speed=16.6x    frame=13610 fps=399 q=-0.0 size=N/A time=00:09:27.65 bitrate=N/A speed=16.7x    frame=13782 fps=398 q=-0.0 size=N/A time=00:09:34.82 bitrate=N/A speed=16.6x    frame=13980 fps=398 q=-0.0 size=N/A time=00:09:43.08 bitrate=N/A speed=16.6x    frame=14183 fps=398 q=-0.0 size=N/A time=00:09:51.54 bitrate=N/A speed=16.6x    frame=14375 fps=398 q=-0.0 size=N/A time=00:09:59.55 bitrate=N/A speed=16.6x    frame=14577 fps=398 q=-0.0 size=N/A time=00:10:07.98 bitrate=N/A speed=16.6x    frame=14745 fps=397 q=-0.0 size=N/A time=00:10:14.98 bitrate=N/A speed=16.5x    frame=14950 fps=397 q=-0.0 size=N/A time=00:10:23.53 bitrate=N/A speed=16.5x    frame=15148 fps=396 q=-0.0 size=N/A time=00:10:31.79 bitrate=N/A speed=16.5x    frame=15326 fps=396 q=-0.0 size=N/A time=00:10:39.22 bitrate=N/A speed=16.5x    frame=15496 fps=395 q=-0.0 size=N/A time=00:10:46.31 bitrate=N/A speed=16.5x    frame=15719 fps=395 q=-0.0 size=N/A time=00:10:55.61 bitrate=N/A speed=16.5x    frame=15941 fps=396 q=-0.0 size=N/A time=00:11:04.87 bitrate=N/A speed=16.5x    frame=16177 fps=397 q=-0.0 size=N/A time=00:11:14.71 bitrate=N/A speed=16.5x    frame=16425 fps=398 q=-0.0 size=N/A time=00:11:25.05 bitrate=N/A speed=16.6x    frame=16667 fps=399 q=-0.0 size=N/A time=00:11:35.15 bitrate=N/A speed=16.6x    frame=16921 fps=400 q=-0.0 size=N/A time=00:11:45.74 bitrate=N/A speed=16.7x    frame=17177 fps=401 q=-0.0 size=N/A time=00:11:56.42 bitrate=N/A speed=16.7x    frame=17439 fps=402 q=-0.0 size=N/A time=00:12:07.35 bitrate=N/A speed=16.8x    frame=17673 fps=403 q=-0.0 size=N/A time=00:12:17.11 bitrate=N/A speed=16.8x    frame=17897 fps=403 q=-0.0 size=N/A time=00:12:26.45 bitrate=N/A speed=16.8x    frame=18112 fps=403 q=-0.0 size=N/A time=00:12:35.42 bitrate=N/A speed=16.8x    frame=18300 fps=403 q=-0.0 size=N/A time=00:12:43.26 bitrate=N/A speed=16.8x    frame=18493 fps=403 q=-0.0 size=N/A time=00:12:51.31 bitrate=N/A speed=16.8x    frame=18699 fps=403 q=-0.0 size=N/A time=00:12:59.90 bitrate=N/A speed=16.8x    frame=18887 fps=402 q=-0.0 size=N/A time=00:13:07.74 bitrate=N/A speed=16.8x    frame=19115 fps=403 q=-0.0 size=N/A time=00:13:17.25 bitrate=N/A speed=16.8x    frame=19372 fps=404 q=-0.0 size=N/A time=00:13:27.97 bitrate=N/A speed=16.8x    frame=19569 fps=403 q=-0.0 size=N/A time=00:13:36.19 bitrate=N/A speed=16.8x    frame=19829 fps=404 q=-0.0 size=N/A time=00:13:47.03 bitrate=N/A speed=16.9x    frame=20045 fps=405 q=-0.0 size=N/A time=00:13:56.04 bitrate=N/A speed=16.9x    frame=20240 fps=404 q=-0.0 size=N/A time=00:14:04.17 bitrate=N/A speed=16.9x    frame=20458 fps=405 q=-0.0 size=N/A time=00:14:13.26 bitrate=N/A speed=16.9x    frame=20659 fps=404 q=-0.0 size=N/A time=00:14:21.65 bitrate=N/A speed=16.9x    frame=20871 fps=404 q=-0.0 size=N/A time=00:14:30.49 bitrate=N/A speed=16.9x    frame=21052 fps=404 q=-0.0 size=N/A time=00:14:38.04 bitrate=N/A speed=16.8x    frame=21276 fps=404 q=-0.0 size=N/A time=00:14:47.38 bitrate=N/A speed=16.9x    frame=21492 fps=404 q=-0.0 size=N/A time=00:14:56.39 bitrate=N/A speed=16.9x    frame=21681 fps=404 q=-0.0 size=N/A time=00:15:04.27 bitrate=N/A speed=16.8x    frame=21920 fps=404 q=-0.0 size=N/A time=00:15:14.24 bitrate=N/A speed=16.9x    frame=22147 fps=405 q=-0.0 size=N/A time=00:15:23.71 bitrate=N/A speed=16.9x    frame=22356 fps=405 q=-0.0 size=N/A time=00:15:32.43 bitrate=N/A speed=16.9x    frame=22595 fps=405 q=-0.0 size=N/A time=00:15:42.39 bitrate=N/A speed=16.9x    frame=22793 fps=405 q=-0.0 size=N/A time=00:15:50.65 bitrate=N/A speed=16.9x    frame=22965 fps=404 q=-0.0 size=N/A time=00:15:57.83 bitrate=N/A speed=16.9x    frame=23163 fps=404 q=-0.0 size=N/A time=00:16:06.09 bitrate=N/A speed=16.9x    frame=23429 fps=405 q=-0.0 size=N/A time=00:16:17.18 bitrate=N/A speed=16.9x    frame=23642 fps=405 q=-0.0 size=N/A time=00:16:26.06 bitrate=N/A speed=16.9x    frame=23881 fps=406 q=-0.0 size=N/A time=00:16:36.03 bitrate=N/A speed=16.9x    frame=24088 fps=406 q=-0.0 size=N/A time=00:16:44.67 bitrate=N/A speed=16.9x    frame=24319 fps=406 q=-0.0 size=N/A time=00:16:54.30 bitrate=N/A speed=16.9x    frame=24564 fps=407 q=-0.0 size=N/A time=00:17:04.52 bitrate=N/A speed=  17x    frame=24745 fps=406 q=-0.0 size=N/A time=00:17:12.07 bitrate=N/A speed=16.9x    frame=24960 fps=406 q=-0.0 size=N/A time=00:17:21.04 bitrate=N/A speed=16.9x    frame=25179 fps=407 q=-0.0 size=N/A time=00:17:30.17 bitrate=N/A speed=  17x    frame=25371 fps=406 q=-0.0 size=N/A time=00:17:38.18 bitrate=N/A speed=16.9x    frame=25603 fps=407 q=-0.0 size=N/A time=00:17:47.85 bitrate=N/A speed=  17x    frame=25799 fps=406 q=-0.0 size=N/A time=00:17:56.03 bitrate=N/A speed=16.9x    frame=25970 fps=406 q=-0.0 size=N/A time=00:18:03.16 bitrate=N/A speed=16.9x    frame=26182 fps=406 q=-0.0 size=N/A time=00:18:12.00 bitrate=N/A speed=16.9x    frame=26402 fps=406 q=-0.0 size=N/A time=00:18:21.18 bitrate=N/A speed=16.9x    frame=26599 fps=406 q=-0.0 size=N/A time=00:18:29.39 bitrate=N/A speed=16.9x    frame=26820 fps=406 q=-0.0 size=N/A time=00:18:38.61 bitrate=N/A speed=16.9x    frame=27046 fps=406 q=-0.0 size=N/A time=00:18:48.04 bitrate=N/A speed=16.9x    frame=27264 fps=406 q=-0.0 size=N/A time=00:18:57.13 bitrate=N/A speed=16.9x    frame=27411 fps=405 q=-0.0 size=N/A time=00:19:03.26 bitrate=N/A speed=16.9x    frame=27600 fps=405 q=-0.0 size=N/A time=00:19:11.15 bitrate=N/A speed=16.9x    frame=27801 fps=405 q=-0.0 size=N/A time=00:19:19.53 bitrate=N/A speed=16.9x    frame=28014 fps=405 q=-0.0 size=N/A time=00:19:28.41 bitrate=N/A speed=16.9x    frame=28198 fps=405 q=-0.0 size=N/A time=00:19:36.09 bitrate=N/A speed=16.9x    frame=28395 fps=405 q=-0.0 size=N/A time=00:19:44.30 bitrate=N/A speed=16.9x    frame=28611 fps=405 q=-0.0 size=N/A time=00:19:53.31 bitrate=N/A speed=16.9x    frame=28816 fps=405 q=-0.0 size=N/A time=00:20:01.86 bitrate=N/A speed=16.9x    frame=28980 fps=404 q=-0.0 size=N/A time=00:20:08.70 bitrate=N/A speed=16.8x    frame=29175 fps=404 q=-0.0 size=N/A time=00:20:16.84 bitrate=N/A speed=16.8x    frame=29390 fps=404 q=-0.0 size=N/A time=00:20:25.80 bitrate=N/A speed=16.8x    frame=29642 fps=404 q=-0.0 size=N/A time=00:20:36.31 bitrate=N/A speed=16.9x    frame=29866 fps=405 q=-0.0 size=N/A time=00:20:45.66 bitrate=N/A speed=16.9x    frame=30119 fps=405 q=-0.0 size=N/A time=00:20:56.21 bitrate=N/A speed=16.9x    frame=30378 fps=406 q=-0.0 size=N/A time=00:21:07.01 bitrate=N/A speed=16.9x    frame=30642 fps=407 q=-0.0 size=N/A time=00:21:18.02 bitrate=N/A speed=  17x    frame=30886 fps=407 q=-0.0 size=N/A time=00:21:28.20 bitrate=N/A speed=  17x    frame=31101 fps=407 q=-0.0 size=N/A time=00:21:37.17 bitrate=N/A speed=  17x    frame=31331 fps=407 q=-0.0 size=N/A time=00:21:46.76 bitrate=N/A speed=  17x    frame=31523 fps=407 q=-0.0 size=N/A time=00:21:54.77 bitrate=N/A speed=  17x    frame=31757 fps=408 q=-0.0 size=N/A time=00:22:04.53 bitrate=N/A speed=  17x    frame=31959 fps=407 q=-0.0 size=N/A time=00:22:12.95 bitrate=N/A speed=  17x    frame=32166 fps=407 q=-0.0 size=N/A time=00:22:21.59 bitrate=N/A speed=  17x    frame=32377 fps=407 q=-0.0 size=N/A time=00:22:30.39 bitrate=N/A speed=  17x    frame=32598 fps=408 q=-0.0 size=N/A time=00:22:39.60 bitrate=N/A speed=  17x    frame=32818 fps=408 q=-0.0 size=N/A time=00:22:48.78 bitrate=N/A speed=  17x    frame=32999 fps=407 q=-0.0 size=N/A time=00:22:56.33 bitrate=N/A speed=  17x    frame=33213 fps=407 q=-0.0 size=N/A time=00:23:05.25 bitrate=N/A speed=  17x    frame=33434 fps=407 q=-0.0 size=N/A time=00:23:14.47 bitrate=N/A speed=  17x    frame=33659 fps=408 q=-0.0 size=N/A time=00:23:23.86 bitrate=N/A speed=  17x    frame=33879 fps=408 q=-0.0 size=N/A time=00:23:33.03 bitrate=N/A speed=  17x    frame=34094 fps=408 q=-0.0 size=N/A time=00:23:42.00 bitrate=N/A speed=  17x    frame=34339 fps=408 q=-0.0 size=N/A time=00:23:52.22 bitrate=N/A speed=  17x    frame=34516 fps=408 q=-0.0 size=N/A time=00:23:59.60 bitrate=N/A speed=  17x    [Parsed_psnr_10 @ 00000117c9fe4000] PSNR y:47.280145 u:51.634296 v:51.623801 average:48.308686 min:37.687346 max:inf
[out#0/null @ 00000117be1d3340] video:14858KiB audio:270440KiB subtitle:0KiB other streams:0KiB global headers:0KiB muxing overhead: unknown
frame=34579 fps=408 q=-0.0 Lsize=N/A time=00:24:02.23 bitrate=N/A speed=  17x    
